<mxfile host="Electron" agent="Mozilla/5.0 (Windows NT 10.0; Win64; x64) AppleWebKit/537.36 (KHTML, like Gecko) draw.io/24.7.5 Chrome/126.0.6478.183 Electron/31.3.0 Safari/537.36" version="24.7.5">
  <diagram name="PÃ¡gina-1" id="SpzhlbaivaGbgMK0F-xh">
    <mxGraphModel dx="1742" dy="645" grid="1" gridSize="10" guides="1" tooltips="1" connect="1" arrows="1" fold="1" page="1" pageScale="1" pageWidth="827" pageHeight="1169" math="0" shadow="0">
      <root>
        <mxCell id="0" />
        <mxCell id="1" parent="0" />
        <mxCell id="NKTn9VHJMr8A_WgUI14F-20" style="edgeStyle=orthogonalEdgeStyle;rounded=0;orthogonalLoop=1;jettySize=auto;html=1;exitX=0.5;exitY=1;exitDx=0;exitDy=0;entryX=0.5;entryY=0;entryDx=0;entryDy=0;endArrow=none;endFill=0;" edge="1" parent="1" source="NKTn9VHJMr8A_WgUI14F-1" target="NKTn9VHJMr8A_WgUI14F-16">
          <mxGeometry relative="1" as="geometry" />
        </mxCell>
        <mxCell id="NKTn9VHJMr8A_WgUI14F-1" value="CLIENTE" style="whiteSpace=wrap;html=1;align=center;" vertex="1" parent="1">
          <mxGeometry x="-50" y="140" width="100" height="40" as="geometry" />
        </mxCell>
        <mxCell id="NKTn9VHJMr8A_WgUI14F-24" style="edgeStyle=orthogonalEdgeStyle;rounded=0;orthogonalLoop=1;jettySize=auto;html=1;exitX=1;exitY=0.5;exitDx=0;exitDy=0;entryX=0;entryY=0.5;entryDx=0;entryDy=0;endArrow=none;endFill=0;" edge="1" parent="1" source="NKTn9VHJMr8A_WgUI14F-2" target="NKTn9VHJMr8A_WgUI14F-18">
          <mxGeometry relative="1" as="geometry" />
        </mxCell>
        <mxCell id="NKTn9VHJMr8A_WgUI14F-26" style="edgeStyle=orthogonalEdgeStyle;rounded=0;orthogonalLoop=1;jettySize=auto;html=1;exitX=0.5;exitY=1;exitDx=0;exitDy=0;entryX=0.5;entryY=0;entryDx=0;entryDy=0;endArrow=none;endFill=0;" edge="1" parent="1" source="NKTn9VHJMr8A_WgUI14F-2" target="NKTn9VHJMr8A_WgUI14F-19">
          <mxGeometry relative="1" as="geometry" />
        </mxCell>
        <mxCell id="NKTn9VHJMr8A_WgUI14F-2" value="VEHICULO" style="whiteSpace=wrap;html=1;align=center;" vertex="1" parent="1">
          <mxGeometry x="260" y="300" width="100" height="40" as="geometry" />
        </mxCell>
        <mxCell id="NKTn9VHJMr8A_WgUI14F-22" style="edgeStyle=orthogonalEdgeStyle;rounded=0;orthogonalLoop=1;jettySize=auto;html=1;exitX=1;exitY=0.5;exitDx=0;exitDy=0;entryX=0;entryY=0.5;entryDx=0;entryDy=0;endArrow=none;endFill=0;" edge="1" parent="1" source="NKTn9VHJMr8A_WgUI14F-3" target="NKTn9VHJMr8A_WgUI14F-17">
          <mxGeometry relative="1" as="geometry" />
        </mxCell>
        <mxCell id="NKTn9VHJMr8A_WgUI14F-3" value="RESERVA" style="whiteSpace=wrap;html=1;align=center;" vertex="1" parent="1">
          <mxGeometry x="-50" y="300" width="100" height="40" as="geometry" />
        </mxCell>
        <mxCell id="NKTn9VHJMr8A_WgUI14F-4" value="COCHERA" style="whiteSpace=wrap;html=1;align=center;" vertex="1" parent="1">
          <mxGeometry x="260" y="490" width="100" height="40" as="geometry" />
        </mxCell>
        <mxCell id="NKTn9VHJMr8A_WgUI14F-5" value="TIPO" style="whiteSpace=wrap;html=1;align=center;" vertex="1" parent="1">
          <mxGeometry x="560" y="300" width="100" height="40" as="geometry" />
        </mxCell>
        <mxCell id="NKTn9VHJMr8A_WgUI14F-6" value="dni" style="ellipse;whiteSpace=wrap;html=1;align=center;fontStyle=4;" vertex="1" parent="1">
          <mxGeometry x="-140" y="50" width="60" height="40" as="geometry" />
        </mxCell>
        <mxCell id="NKTn9VHJMr8A_WgUI14F-7" style="edgeStyle=orthogonalEdgeStyle;rounded=0;orthogonalLoop=1;jettySize=auto;html=1;exitX=1;exitY=1;exitDx=0;exitDy=0;endArrow=none;endFill=0;" edge="1" parent="1" source="NKTn9VHJMr8A_WgUI14F-6">
          <mxGeometry relative="1" as="geometry">
            <mxPoint x="-33" y="140" as="targetPoint" />
          </mxGeometry>
        </mxCell>
        <mxCell id="NKTn9VHJMr8A_WgUI14F-9" style="edgeStyle=orthogonalEdgeStyle;rounded=0;orthogonalLoop=1;jettySize=auto;html=1;exitX=1;exitY=0.5;exitDx=0;exitDy=0;entryX=0;entryY=0.5;entryDx=0;entryDy=0;endArrow=none;endFill=0;" edge="1" parent="1" source="NKTn9VHJMr8A_WgUI14F-8" target="NKTn9VHJMr8A_WgUI14F-3">
          <mxGeometry relative="1" as="geometry" />
        </mxCell>
        <mxCell id="NKTn9VHJMr8A_WgUI14F-8" value="id" style="ellipse;whiteSpace=wrap;html=1;align=center;fontStyle=4;" vertex="1" parent="1">
          <mxGeometry x="-140" y="330" width="50" height="40" as="geometry" />
        </mxCell>
        <mxCell id="NKTn9VHJMr8A_WgUI14F-10" value="patente" style="ellipse;whiteSpace=wrap;html=1;align=center;fontStyle=4;" vertex="1" parent="1">
          <mxGeometry x="120" y="220" width="80" height="40" as="geometry" />
        </mxCell>
        <mxCell id="NKTn9VHJMr8A_WgUI14F-11" style="edgeStyle=orthogonalEdgeStyle;rounded=0;orthogonalLoop=1;jettySize=auto;html=1;exitX=0.5;exitY=1;exitDx=0;exitDy=0;entryX=0.14;entryY=0.075;entryDx=0;entryDy=0;entryPerimeter=0;endArrow=none;endFill=0;" edge="1" parent="1" source="NKTn9VHJMr8A_WgUI14F-10" target="NKTn9VHJMr8A_WgUI14F-2">
          <mxGeometry relative="1" as="geometry" />
        </mxCell>
        <mxCell id="NKTn9VHJMr8A_WgUI14F-12" value="codigo" style="ellipse;whiteSpace=wrap;html=1;align=center;fontStyle=4;" vertex="1" parent="1">
          <mxGeometry x="230" y="565" width="70" height="40" as="geometry" />
        </mxCell>
        <mxCell id="NKTn9VHJMr8A_WgUI14F-13" style="edgeStyle=orthogonalEdgeStyle;rounded=0;orthogonalLoop=1;jettySize=auto;html=1;exitX=0.5;exitY=0;exitDx=0;exitDy=0;entryX=0.17;entryY=1.025;entryDx=0;entryDy=0;entryPerimeter=0;endArrow=none;endFill=0;" edge="1" parent="1" source="NKTn9VHJMr8A_WgUI14F-12" target="NKTn9VHJMr8A_WgUI14F-4">
          <mxGeometry relative="1" as="geometry" />
        </mxCell>
        <mxCell id="NKTn9VHJMr8A_WgUI14F-15" style="edgeStyle=orthogonalEdgeStyle;rounded=0;orthogonalLoop=1;jettySize=auto;html=1;exitX=0.5;exitY=1;exitDx=0;exitDy=0;entryX=0.25;entryY=0;entryDx=0;entryDy=0;endArrow=none;endFill=0;" edge="1" parent="1" source="NKTn9VHJMr8A_WgUI14F-14" target="NKTn9VHJMr8A_WgUI14F-5">
          <mxGeometry relative="1" as="geometry" />
        </mxCell>
        <mxCell id="NKTn9VHJMr8A_WgUI14F-14" value="id" style="ellipse;whiteSpace=wrap;html=1;align=center;fontStyle=4;" vertex="1" parent="1">
          <mxGeometry x="510" y="210" width="50" height="40" as="geometry" />
        </mxCell>
        <mxCell id="NKTn9VHJMr8A_WgUI14F-21" style="edgeStyle=orthogonalEdgeStyle;rounded=0;orthogonalLoop=1;jettySize=auto;html=1;exitX=0.5;exitY=1;exitDx=0;exitDy=0;entryX=0.5;entryY=0;entryDx=0;entryDy=0;endArrow=none;endFill=0;" edge="1" parent="1" source="NKTn9VHJMr8A_WgUI14F-16" target="NKTn9VHJMr8A_WgUI14F-3">
          <mxGeometry relative="1" as="geometry" />
        </mxCell>
        <mxCell id="NKTn9VHJMr8A_WgUI14F-56" value="" style="edgeStyle=orthogonalEdgeStyle;rounded=0;orthogonalLoop=1;jettySize=auto;html=1;endArrow=none;endFill=0;" edge="1" parent="1" source="NKTn9VHJMr8A_WgUI14F-16" target="NKTn9VHJMr8A_WgUI14F-1">
          <mxGeometry relative="1" as="geometry" />
        </mxCell>
        <mxCell id="NKTn9VHJMr8A_WgUI14F-16" value="Realiza" style="shape=rhombus;perimeter=rhombusPerimeter;whiteSpace=wrap;html=1;align=center;" vertex="1" parent="1">
          <mxGeometry x="-40" y="210" width="80" height="40" as="geometry" />
        </mxCell>
        <mxCell id="NKTn9VHJMr8A_WgUI14F-23" style="edgeStyle=orthogonalEdgeStyle;rounded=0;orthogonalLoop=1;jettySize=auto;html=1;exitX=1;exitY=0.5;exitDx=0;exitDy=0;entryX=0;entryY=0.5;entryDx=0;entryDy=0;endArrow=none;endFill=0;" edge="1" parent="1" source="NKTn9VHJMr8A_WgUI14F-17" target="NKTn9VHJMr8A_WgUI14F-2">
          <mxGeometry relative="1" as="geometry" />
        </mxCell>
        <mxCell id="NKTn9VHJMr8A_WgUI14F-17" value="Contiene" style="shape=rhombus;perimeter=rhombusPerimeter;whiteSpace=wrap;html=1;align=center;" vertex="1" parent="1">
          <mxGeometry x="110" y="300" width="80" height="40" as="geometry" />
        </mxCell>
        <mxCell id="NKTn9VHJMr8A_WgUI14F-25" style="edgeStyle=orthogonalEdgeStyle;rounded=0;orthogonalLoop=1;jettySize=auto;html=1;exitX=1;exitY=0.5;exitDx=0;exitDy=0;entryX=0;entryY=0.5;entryDx=0;entryDy=0;endArrow=none;endFill=0;" edge="1" parent="1" source="NKTn9VHJMr8A_WgUI14F-18" target="NKTn9VHJMr8A_WgUI14F-5">
          <mxGeometry relative="1" as="geometry" />
        </mxCell>
        <mxCell id="NKTn9VHJMr8A_WgUI14F-18" value="Corresponde a" style="shape=rhombus;perimeter=rhombusPerimeter;whiteSpace=wrap;html=1;align=center;" vertex="1" parent="1">
          <mxGeometry x="420" y="300" width="80" height="40" as="geometry" />
        </mxCell>
        <mxCell id="NKTn9VHJMr8A_WgUI14F-27" style="edgeStyle=orthogonalEdgeStyle;rounded=0;orthogonalLoop=1;jettySize=auto;html=1;exitX=0.5;exitY=1;exitDx=0;exitDy=0;entryX=0.5;entryY=0;entryDx=0;entryDy=0;endArrow=none;endFill=0;" edge="1" parent="1" source="NKTn9VHJMr8A_WgUI14F-19" target="NKTn9VHJMr8A_WgUI14F-4">
          <mxGeometry relative="1" as="geometry" />
        </mxCell>
        <mxCell id="NKTn9VHJMr8A_WgUI14F-19" value="Tiene asiganda" style="shape=rhombus;perimeter=rhombusPerimeter;whiteSpace=wrap;html=1;align=center;" vertex="1" parent="1">
          <mxGeometry x="270" y="400" width="80" height="40" as="geometry" />
        </mxCell>
        <mxCell id="NKTn9VHJMr8A_WgUI14F-28" value="nombre" style="ellipse;whiteSpace=wrap;html=1;align=center;" vertex="1" parent="1">
          <mxGeometry x="-40" y="30" width="100" height="40" as="geometry" />
        </mxCell>
        <mxCell id="NKTn9VHJMr8A_WgUI14F-29" value="direccion" style="ellipse;whiteSpace=wrap;html=1;align=center;" vertex="1" parent="1">
          <mxGeometry x="90" y="40" width="100" height="40" as="geometry" />
        </mxCell>
        <mxCell id="NKTn9VHJMr8A_WgUI14F-34" style="edgeStyle=orthogonalEdgeStyle;rounded=0;orthogonalLoop=1;jettySize=auto;html=1;exitX=0;exitY=0.5;exitDx=0;exitDy=0;entryX=1;entryY=0.5;entryDx=0;entryDy=0;endArrow=none;endFill=0;" edge="1" parent="1" source="NKTn9VHJMr8A_WgUI14F-31" target="NKTn9VHJMr8A_WgUI14F-1">
          <mxGeometry relative="1" as="geometry" />
        </mxCell>
        <mxCell id="NKTn9VHJMr8A_WgUI14F-31" value="telefono" style="ellipse;shape=doubleEllipse;margin=3;whiteSpace=wrap;html=1;align=center;" vertex="1" parent="1">
          <mxGeometry x="90" y="100" width="100" height="40" as="geometry" />
        </mxCell>
        <mxCell id="NKTn9VHJMr8A_WgUI14F-32" style="edgeStyle=orthogonalEdgeStyle;rounded=0;orthogonalLoop=1;jettySize=auto;html=1;exitX=0.5;exitY=1;exitDx=0;exitDy=0;entryX=0.57;entryY=0;entryDx=0;entryDy=0;entryPerimeter=0;endArrow=none;endFill=0;" edge="1" parent="1" source="NKTn9VHJMr8A_WgUI14F-28" target="NKTn9VHJMr8A_WgUI14F-1">
          <mxGeometry relative="1" as="geometry" />
        </mxCell>
        <mxCell id="NKTn9VHJMr8A_WgUI14F-33" style="edgeStyle=orthogonalEdgeStyle;rounded=0;orthogonalLoop=1;jettySize=auto;html=1;exitX=0;exitY=1;exitDx=0;exitDy=0;entryX=0.94;entryY=-0.05;entryDx=0;entryDy=0;entryPerimeter=0;endArrow=none;endFill=0;" edge="1" parent="1" source="NKTn9VHJMr8A_WgUI14F-29" target="NKTn9VHJMr8A_WgUI14F-1">
          <mxGeometry relative="1" as="geometry" />
        </mxCell>
        <mxCell id="NKTn9VHJMr8A_WgUI14F-35" value="descripcion" style="ellipse;whiteSpace=wrap;html=1;align=center;" vertex="1" parent="1">
          <mxGeometry x="610" y="220" width="100" height="40" as="geometry" />
        </mxCell>
        <mxCell id="NKTn9VHJMr8A_WgUI14F-36" style="edgeStyle=orthogonalEdgeStyle;rounded=0;orthogonalLoop=1;jettySize=auto;html=1;exitX=0.5;exitY=1;exitDx=0;exitDy=0;entryX=0.617;entryY=-0.05;entryDx=0;entryDy=0;entryPerimeter=0;endArrow=none;endFill=0;" edge="1" parent="1" source="NKTn9VHJMr8A_WgUI14F-35" target="NKTn9VHJMr8A_WgUI14F-5">
          <mxGeometry relative="1" as="geometry" />
        </mxCell>
        <mxCell id="NKTn9VHJMr8A_WgUI14F-37" value="fechaInicio" style="ellipse;whiteSpace=wrap;html=1;align=center;" vertex="1" parent="1">
          <mxGeometry x="-170" y="380" width="100" height="40" as="geometry" />
        </mxCell>
        <mxCell id="NKTn9VHJMr8A_WgUI14F-38" value="fechaFin" style="ellipse;whiteSpace=wrap;html=1;align=center;" vertex="1" parent="1">
          <mxGeometry x="-100" y="440" width="100" height="40" as="geometry" />
        </mxCell>
        <mxCell id="NKTn9VHJMr8A_WgUI14F-39" value="precioTotal" style="ellipse;whiteSpace=wrap;html=1;align=center;" vertex="1" parent="1">
          <mxGeometry y="400" width="100" height="40" as="geometry" />
        </mxCell>
        <mxCell id="NKTn9VHJMr8A_WgUI14F-40" style="edgeStyle=orthogonalEdgeStyle;rounded=0;orthogonalLoop=1;jettySize=auto;html=1;exitX=1;exitY=0;exitDx=0;exitDy=0;entryX=0.139;entryY=1.022;entryDx=0;entryDy=0;entryPerimeter=0;endArrow=none;endFill=0;" edge="1" parent="1" source="NKTn9VHJMr8A_WgUI14F-37" target="NKTn9VHJMr8A_WgUI14F-3">
          <mxGeometry relative="1" as="geometry" />
        </mxCell>
        <mxCell id="NKTn9VHJMr8A_WgUI14F-41" style="edgeStyle=orthogonalEdgeStyle;rounded=0;orthogonalLoop=1;jettySize=auto;html=1;exitX=0.5;exitY=0;exitDx=0;exitDy=0;entryX=0.433;entryY=1.051;entryDx=0;entryDy=0;entryPerimeter=0;endArrow=none;endFill=0;" edge="1" parent="1" source="NKTn9VHJMr8A_WgUI14F-38" target="NKTn9VHJMr8A_WgUI14F-3">
          <mxGeometry relative="1" as="geometry" />
        </mxCell>
        <mxCell id="NKTn9VHJMr8A_WgUI14F-42" style="edgeStyle=orthogonalEdgeStyle;rounded=0;orthogonalLoop=1;jettySize=auto;html=1;exitX=0.5;exitY=0;exitDx=0;exitDy=0;entryX=0.68;entryY=1.081;entryDx=0;entryDy=0;entryPerimeter=0;endArrow=none;endFill=0;" edge="1" parent="1" source="NKTn9VHJMr8A_WgUI14F-39" target="NKTn9VHJMr8A_WgUI14F-3">
          <mxGeometry relative="1" as="geometry" />
        </mxCell>
        <mxCell id="NKTn9VHJMr8A_WgUI14F-46" style="edgeStyle=orthogonalEdgeStyle;rounded=0;orthogonalLoop=1;jettySize=auto;html=1;exitX=0.5;exitY=1;exitDx=0;exitDy=0;entryX=0.5;entryY=0;entryDx=0;entryDy=0;endArrow=none;endFill=0;" edge="1" parent="1" source="NKTn9VHJMr8A_WgUI14F-43" target="NKTn9VHJMr8A_WgUI14F-2">
          <mxGeometry relative="1" as="geometry" />
        </mxCell>
        <mxCell id="NKTn9VHJMr8A_WgUI14F-43" value="marca" style="ellipse;whiteSpace=wrap;html=1;align=center;" vertex="1" parent="1">
          <mxGeometry x="235" y="150" width="60" height="40" as="geometry" />
        </mxCell>
        <mxCell id="NKTn9VHJMr8A_WgUI14F-48" style="edgeStyle=orthogonalEdgeStyle;rounded=0;orthogonalLoop=1;jettySize=auto;html=1;exitX=0.5;exitY=1;exitDx=0;exitDy=0;entryX=0.25;entryY=0;entryDx=0;entryDy=0;endArrow=none;endFill=0;" edge="1" parent="1" source="NKTn9VHJMr8A_WgUI14F-44" target="NKTn9VHJMr8A_WgUI14F-2">
          <mxGeometry relative="1" as="geometry" />
        </mxCell>
        <mxCell id="NKTn9VHJMr8A_WgUI14F-44" value="modelo" style="ellipse;whiteSpace=wrap;html=1;align=center;" vertex="1" parent="1">
          <mxGeometry x="170" y="170" width="70" height="40" as="geometry" />
        </mxCell>
        <mxCell id="NKTn9VHJMr8A_WgUI14F-47" style="edgeStyle=orthogonalEdgeStyle;rounded=0;orthogonalLoop=1;jettySize=auto;html=1;exitX=0.5;exitY=1;exitDx=0;exitDy=0;entryX=0.75;entryY=0;entryDx=0;entryDy=0;endArrow=none;endFill=0;" edge="1" parent="1" source="NKTn9VHJMr8A_WgUI14F-45" target="NKTn9VHJMr8A_WgUI14F-2">
          <mxGeometry relative="1" as="geometry">
            <Array as="points">
              <mxPoint x="410" y="290" />
              <mxPoint x="360" y="290" />
              <mxPoint x="360" y="300" />
            </Array>
          </mxGeometry>
        </mxCell>
        <mxCell id="NKTn9VHJMr8A_WgUI14F-45" value="color" style="ellipse;whiteSpace=wrap;html=1;align=center;" vertex="1" parent="1">
          <mxGeometry x="380" y="230" width="60" height="40" as="geometry" />
        </mxCell>
        <mxCell id="NKTn9VHJMr8A_WgUI14F-49" value="direccion" style="ellipse;whiteSpace=wrap;html=1;align=center;" vertex="1" parent="1">
          <mxGeometry x="320" y="565" width="100" height="40" as="geometry" />
        </mxCell>
        <mxCell id="NKTn9VHJMr8A_WgUI14F-50" style="edgeStyle=orthogonalEdgeStyle;rounded=0;orthogonalLoop=1;jettySize=auto;html=1;exitX=0.75;exitY=1;exitDx=0;exitDy=0;entryX=0.356;entryY=0.044;entryDx=0;entryDy=0;entryPerimeter=0;endArrow=none;endFill=0;" edge="1" parent="1" source="NKTn9VHJMr8A_WgUI14F-4" target="NKTn9VHJMr8A_WgUI14F-49">
          <mxGeometry relative="1" as="geometry" />
        </mxCell>
        <mxCell id="NKTn9VHJMr8A_WgUI14F-55" style="edgeStyle=orthogonalEdgeStyle;rounded=0;orthogonalLoop=1;jettySize=auto;html=1;exitX=0;exitY=1;exitDx=0;exitDy=0;endArrow=none;endFill=0;" edge="1" parent="1" source="NKTn9VHJMr8A_WgUI14F-51">
          <mxGeometry relative="1" as="geometry">
            <mxPoint x="340" y="300" as="targetPoint" />
            <Array as="points">
              <mxPoint x="370" y="194" />
              <mxPoint x="370" y="260" />
              <mxPoint x="340" y="260" />
            </Array>
          </mxGeometry>
        </mxCell>
        <mxCell id="NKTn9VHJMr8A_WgUI14F-51" value="litrosNafta" style="ellipse;whiteSpace=wrap;html=1;align=center;" vertex="1" parent="1">
          <mxGeometry x="400" y="160" width="70" height="40" as="geometry" />
        </mxCell>
        <mxCell id="NKTn9VHJMr8A_WgUI14F-54" style="edgeStyle=orthogonalEdgeStyle;rounded=0;orthogonalLoop=1;jettySize=auto;html=1;exitX=0.5;exitY=1;exitDx=0;exitDy=0;endArrow=none;endFill=0;" edge="1" parent="1" source="NKTn9VHJMr8A_WgUI14F-52" target="NKTn9VHJMr8A_WgUI14F-2">
          <mxGeometry relative="1" as="geometry">
            <Array as="points">
              <mxPoint x="350" y="150" />
              <mxPoint x="350" y="225" />
              <mxPoint x="320" y="225" />
            </Array>
          </mxGeometry>
        </mxCell>
        <mxCell id="NKTn9VHJMr8A_WgUI14F-52" value="precioAlquilerVehuculo" style="ellipse;whiteSpace=wrap;html=1;align=center;" vertex="1" parent="1">
          <mxGeometry x="280" y="110" width="180" height="40" as="geometry" />
        </mxCell>
        <mxCell id="NKTn9VHJMr8A_WgUI14F-57" value="1" style="text;html=1;align=center;verticalAlign=middle;resizable=0;points=[];autosize=1;strokeColor=none;fillColor=none;" vertex="1" parent="1">
          <mxGeometry x="-5" y="175" width="30" height="30" as="geometry" />
        </mxCell>
        <mxCell id="NKTn9VHJMr8A_WgUI14F-58" value="N" style="text;html=1;align=center;verticalAlign=middle;resizable=0;points=[];autosize=1;strokeColor=none;fillColor=none;" vertex="1" parent="1">
          <mxGeometry x="-5" y="268" width="30" height="30" as="geometry" />
        </mxCell>
        <mxCell id="NKTn9VHJMr8A_WgUI14F-59" value="1" style="text;html=1;align=center;verticalAlign=middle;resizable=0;points=[];autosize=1;strokeColor=none;fillColor=none;" vertex="1" parent="1">
          <mxGeometry x="235" y="298" width="30" height="30" as="geometry" />
        </mxCell>
        <mxCell id="NKTn9VHJMr8A_WgUI14F-60" value="1" style="text;html=1;align=center;verticalAlign=middle;resizable=0;points=[];autosize=1;strokeColor=none;fillColor=none;" vertex="1" parent="1">
          <mxGeometry x="50" y="288" width="30" height="30" as="geometry" />
        </mxCell>
        <mxCell id="NKTn9VHJMr8A_WgUI14F-61" value="N" style="text;html=1;align=center;verticalAlign=middle;resizable=0;points=[];autosize=1;strokeColor=none;fillColor=none;" vertex="1" parent="1">
          <mxGeometry x="305" y="338" width="30" height="30" as="geometry" />
        </mxCell>
        <mxCell id="NKTn9VHJMr8A_WgUI14F-62" value="1" style="text;html=1;align=center;verticalAlign=middle;resizable=0;points=[];autosize=1;strokeColor=none;fillColor=none;" vertex="1" parent="1">
          <mxGeometry x="305" y="458" width="30" height="30" as="geometry" />
        </mxCell>
        <mxCell id="NKTn9VHJMr8A_WgUI14F-64" value="1" style="text;html=1;align=center;verticalAlign=middle;resizable=0;points=[];autosize=1;strokeColor=none;fillColor=none;" vertex="1" parent="1">
          <mxGeometry x="530" y="298" width="30" height="30" as="geometry" />
        </mxCell>
        <mxCell id="NKTn9VHJMr8A_WgUI14F-65" value="N" style="text;html=1;align=center;verticalAlign=middle;resizable=0;points=[];autosize=1;strokeColor=none;fillColor=none;" vertex="1" parent="1">
          <mxGeometry x="360" y="298" width="30" height="30" as="geometry" />
        </mxCell>
      </root>
    </mxGraphModel>
  </diagram>
</mxfile>
